HIERARCHY
ROOT hips
{
	OFFSET -0.003675 0.299928 -0.021708
	CHANNELS 6 Xposition Yposition Zposition Xrotation Yrotation Zrotation
	JOINT LowerBack
	{
		OFFSET 0.000919 0.177588 0.009275
		CHANNELS 3 Xrotation Yrotation Zrotation
		JOINT spine
		{
			OFFSET 0.000919 0.177588 0.009275
			CHANNELS 3 Xrotation Yrotation Zrotation
			JOINT chest
			{
				OFFSET 0.000456 0.100015 0.004638
				CHANNELS 3 Xrotation Yrotation Zrotation
				JOINT neck
				{
					OFFSET 0.000456 0.100015 0.004638
					CHANNELS 3 Xrotation Yrotation Zrotation
					JOINT head
					{
						OFFSET 0.000924 0.155147 0.009274
						CHANNELS 6 Xposition Yposition Zposition Xrotation Yrotation Zrotation
						End Site
						{
							OFFSET 0.000000 0.153400 0.000000
						}
					}
				}
				JOINT shoulder.L
				{
					OFFSET 0.019937 0.078966 0.057518
					CHANNELS 6 Xposition Yposition Zposition Yrotation Xrotation Zrotation
					JOINT upper_arm.L
					{
						OFFSET 0.177024 -0.020465 -0.095062
						CHANNELS 6 Xposition Yposition Zposition Xrotation Yrotation Zrotation
						JOINT forearm.L
						{
							OFFSET 0.247100 -0.135500 -0.061800
							CHANNELS 3 Xrotation Yrotation Zrotation
							JOINT hand.L
							{
								OFFSET 0.217000 -0.143000 0.039300
								CHANNELS 3 Xrotation Yrotation Zrotation
								JOINT palm.01.L
								{
									OFFSET 0.021770 -0.038291 0.012954
									CHANNELS 6 Xposition Yposition Zposition Yrotation Xrotation Zrotation
									JOINT f_index.01.L
									{
										OFFSET 0.053215 -0.044137 0.008236
										CHANNELS 3 Xrotation Yrotation Zrotation
										JOINT f_index.02.L
										{
											OFFSET 0.036108 -0.024723 -0.010656
											CHANNELS 3 Xrotation Yrotation Zrotation
											JOINT f_index.03.L
											{
												OFFSET 0.021342 -0.014948 -0.010846
												CHANNELS 3 Xrotation Yrotation Zrotation
												End Site
												{
													OFFSET 0.015600 -0.009860 -0.013421
												}
											}
										}
									}
									JOINT thumb.01.L
									{
										OFFSET -0.009090 -0.002348 -0.024223
										CHANNELS 6 Xposition Yposition Zposition Xrotation Yrotation Zrotation
										JOINT thumb.02.L
										{
											OFFSET 0.019713 -0.035076 -0.011120
											CHANNELS 3 Xrotation Yrotation Zrotation
											JOINT thumb.03.L
											{
												OFFSET 0.024877 -0.021748 -0.005176
												CHANNELS 3 Xrotation Yrotation Zrotation
												End Site
												{
													OFFSET 0.016125 -0.013029 -0.001569
												}
											}
										}
									}
								}
								JOINT palm.02.L
								{
									OFFSET 0.032823 -0.025104 0.012281
									CHANNELS 6 Xposition Yposition Zposition Yrotation Xrotation Zrotation
									JOINT f_middle.01.L
									{
										OFFSET 0.055723 -0.038469 0.008037
										CHANNELS 3 Xrotation Yrotation Zrotation
										JOINT f_middle.02.L
										{
											OFFSET 0.038167 -0.027473 -0.015582
											CHANNELS 3 Xrotation Yrotation Zrotation
											JOINT f_middle.03.L
											{
												OFFSET 0.021707 -0.016587 -0.017037
												CHANNELS 3 Xrotation Yrotation Zrotation
												End Site
												{
													OFFSET 0.014112 -0.010584 -0.014294
												}
											}
										}
									}
								}
								JOINT palm.03.L
								{
									OFFSET 0.039230 -0.011402 0.008390
									CHANNELS 6 Xposition Yposition Zposition Yrotation Xrotation Zrotation
									JOINT f_ring.01.L
									{
										OFFSET 0.061796 -0.031470 0.007910
										CHANNELS 3 Xrotation Yrotation Zrotation
										JOINT f_ring.02.L
										{
											OFFSET 0.033092 -0.023401 -0.019127
											CHANNELS 3 Xrotation Yrotation Zrotation
											JOINT f_ring.03.L
											{
												OFFSET 0.021392 -0.015362 -0.017824
												CHANNELS 3 Xrotation Yrotation Zrotation
												End Site
												{
													OFFSET 0.008670 -0.007297 -0.014686
												}
											}
										}
									}
								}
								JOINT palm.04.L
								{
									OFFSET 0.043417 0.002450 0.002889
									CHANNELS 6 Xposition Yposition Zposition Yrotation Xrotation Zrotation
									JOINT f_pinky.01.L
									{
										OFFSET 0.069986 -0.026156 0.003627
										CHANNELS 3 Xrotation Yrotation Zrotation
										JOINT f_pinky.02.L
										{
											OFFSET 0.018520 -0.012813 -0.016429
											CHANNELS 3 Xrotation Yrotation Zrotation
											JOINT f_pinky.03.L
											{
												OFFSET 0.013822 -0.009796 -0.014947
												CHANNELS 3 Xrotation Yrotation Zrotation
												End Site
												{
													OFFSET 0.007238 -0.006103 -0.011657
												}
											}
										}
									}
								}
							}
						}
					}
				}
				JOINT shoulder.R
				{
					OFFSET -0.016662 0.078957 0.057696
					CHANNELS 6 Xposition Yposition Zposition Yrotation Xrotation Zrotation
					JOINT upper_arm.R
					{
						OFFSET -0.176972 -0.020537 -0.095144
						CHANNELS 6 Xposition Yposition Zposition Xrotation Yrotation Zrotation
						JOINT forearm.R
						{
							OFFSET -0.247100 -0.135500 -0.061800
							CHANNELS 3 Xrotation Yrotation Zrotation
							JOINT hand.R
							{
								OFFSET -0.217000 -0.143000 0.039300
								CHANNELS 3 Xrotation Yrotation Zrotation
								JOINT palm.01.R
								{
									OFFSET -0.021773 -0.038278 0.012988
									CHANNELS 6 Xposition Yposition Zposition Yrotation Xrotation Zrotation
									JOINT f_index.01.R
									{
										OFFSET -0.053212 -0.044139 0.008249
										CHANNELS 3 Xrotation Yrotation Zrotation
										JOINT f_index.02.R
										{
											OFFSET -0.036049 -0.024835 -0.010634
											CHANNELS 3 Xrotation Yrotation Zrotation
											JOINT f_index.03.R
											{
												OFFSET -0.021371 -0.014881 -0.010866
												CHANNELS 3 Xrotation Yrotation Zrotation
												End Site
												{
													OFFSET -0.015584 -0.009883 -0.013422
												}
											}
										}
									}
									JOINT thumb.01.R
									{
										OFFSET 0.009113 -0.002381 -0.024211
										CHANNELS 6 Xposition Yposition Zposition Xrotation Yrotation Zrotation
										JOINT thumb.02.R
										{
											OFFSET -0.019694 -0.035097 -0.011088
											CHANNELS 3 Xrotation Yrotation Zrotation
											JOINT thumb.03.R
											{
												OFFSET -0.024867 -0.021762 -0.005168
												CHANNELS 3 Xrotation Yrotation Zrotation
												End Site
												{
													OFFSET -0.016120 -0.013036 -0.001565
												}
											}
										}
									}
								}
								JOINT palm.02.R
								{
									OFFSET -0.032828 -0.025095 0.012286
									CHANNELS 6 Xposition Yposition Zposition Yrotation Xrotation Zrotation
									JOINT f_middle.01.R
									{
										OFFSET -0.055721 -0.038472 0.008040
										CHANNELS 3 Xrotation Yrotation Zrotation
										JOINT f_middle.02.R
										{
											OFFSET -0.038101 -0.027593 -0.015557
											CHANNELS 3 Xrotation Yrotation Zrotation
											JOINT f_middle.03.R
											{
												OFFSET -0.021730 -0.016530 -0.017054
												CHANNELS 3 Xrotation Yrotation Zrotation
												End Site
												{
													OFFSET -0.014096 -0.010608 -0.014293
												}
											}
										}
									}
								}
								JOINT palm.03.R
								{
									OFFSET -0.039192 -0.011488 0.008390
									CHANNELS 6 Xposition Yposition Zposition Yrotation Xrotation Zrotation
									JOINT f_ring.01.R
									{
										OFFSET -0.061839 -0.031387 0.007876
										CHANNELS 3 Xrotation Yrotation Zrotation
										JOINT f_ring.02.R
										{
											OFFSET -0.033068 -0.023437 -0.019125
											CHANNELS 3 Xrotation Yrotation Zrotation
											JOINT f_ring.03.R
											{
												OFFSET -0.021371 -0.015393 -0.017822
												CHANNELS 3 Xrotation Yrotation Zrotation
												End Site
												{
													OFFSET -0.008654 -0.007321 -0.014684
												}
											}
										}
									}
								}
								JOINT palm.04.R
								{
									OFFSET -0.043421 0.002443 0.002845
									CHANNELS 6 Xposition Yposition Zposition Yrotation Xrotation Zrotation
									JOINT f_pinky.01.R
									{
										OFFSET -0.069983 -0.026169 0.003599
										CHANNELS 3 Xrotation Yrotation Zrotation
										JOINT f_pinky.02.R
										{
											OFFSET -0.018501 -0.012842 -0.016428
											CHANNELS 3 Xrotation Yrotation Zrotation
											JOINT f_pinky.03.R
											{
												OFFSET -0.013806 -0.009821 -0.014946
												CHANNELS 3 Xrotation Yrotation Zrotation
												End Site
												{
													OFFSET -0.007226 -0.006121 -0.011655
												}
											}
										}
									}
								}
							}
						}
					}
				}
			}
		}
	}
	JOINT pelvis.L
	{
		OFFSET 0.000000 0.000000 0.000000
		CHANNELS 6 Xposition Yposition Zposition Xrotation Yrotation Zrotation
		JOINT thigh.L
		{
			OFFSET 0.101675 0.001054 -0.000000
			CHANNELS 3 Xrotation Yrotation Zrotation
			JOINT shin.L
			{
				OFFSET 0.000000 -0.534800 0.041000
				CHANNELS 3 Xrotation Yrotation Zrotation
				JOINT foot.L
				{
					OFFSET 0.000000 -0.452000 -0.044800
					CHANNELS 3 Xrotation Yrotation Zrotation
					JOINT toe.L
					{
						OFFSET -0.000000 -0.068500 0.109600
						CHANNELS 3 Xrotation Yrotation Zrotation
						End Site
						{
							OFFSET -0.000000 0.000000 0.067200
						}
					}
				}
				JOINT heel.L
				{
					OFFSET 0.000000 -0.452000 -0.044800
					CHANNELS 3 Xrotation Yrotation Zrotation
					JOINT heel.02.L
					{
						OFFSET -0.038000 -0.085200 0.016200
						CHANNELS 6 Xposition Yposition Zposition Xrotation Yrotation Zrotation
						End Site
						{
							OFFSET 0.080000 -0.000000 0.000000
						}
					}
				}
			}
		}
	}
	JOINT pelvis.R
	{
		OFFSET 0.000000 0.000000 0.000000
		CHANNELS 6 Xposition Yposition Zposition Xrotation Yrotation Zrotation
		JOINT thigh.R
		{
			OFFSET -0.094325 0.001054 0.000000
			CHANNELS 3 Xrotation Yrotation Zrotation
			JOINT shin.R
			{
				OFFSET 0.000000 -0.534800 0.041000
				CHANNELS 3 Xrotation Yrotation Zrotation
				JOINT foot.R
				{
					OFFSET 0.000000 -0.452000 -0.044800
					CHANNELS 3 Xrotation Yrotation Zrotation
					JOINT toe.R
					{
						OFFSET -0.000000 -0.068500 0.109600
						CHANNELS 3 Xrotation Yrotation Zrotation
						End Site
						{
							OFFSET -0.000000 0.000000 0.067200
						}
					}
				}
				JOINT heel.R
				{
					OFFSET 0.000000 -0.452000 -0.044800
					CHANNELS 3 Xrotation Yrotation Zrotation
					JOINT heel.02.R
					{
						OFFSET 0.038000 -0.085200 0.016200
						CHANNELS 6 Xposition Yposition Zposition Xrotation Yrotation Zrotation
						End Site
						{
							OFFSET -0.080000 0.000000 -0.000000
						}
					}
				}
			}
		}
	}
}
MOTION
Frames: 4
Frame Time: 0.041667
-0.010992 0.222071 -0.041519 1.290463 -5.700331 85.205565 -0.000001 0.000000 -0.000000 -0.000001 0.000000 -0.000001 -0.000000 0.000000 -0.000000 0.000000 0.000000 -0.000000 0.000924 0.155147 0.009274 -5.331757 0.013603 13.379155 0.019937 0.078966 0.057518 -4.033298 1.692819 32.574320 0.177024 -0.020466 -0.095062 -47.671401 27.312557 -72.310625 7.849900 17.639672 9.115699 -0.000007 -0.000001 0.000003 0.021770 -0.038291 0.012954 -0.000001 0.000000 0.000001 -0.000000 -0.000000 0.000005 -0.000002 -0.000004 0.000006 -0.000003 0.000001 -0.000000 -0.009090 -0.002348 -0.024224 0.000000 -0.000001 0.000001 0.000004 0.000002 0.000001 -0.000003 -0.000003 0.000001 0.032823 -0.025104 0.012281 -0.000002 0.000002 0.000007 -0.000001 -0.000003 -0.000007 -0.000002 0.000001 0.000005 -0.000003 0.000001 0.000003 0.039230 -0.011402 0.008390 0.000000 0.000003 0.000004 0.000004 0.000002 -0.000004 0.000004 0.000005 -0.000001 -0.000000 -0.000003 0.000002 0.043417 0.002450 0.002889 -0.000003 0.000001 -0.000005 0.000006 -0.000002 0.000001 0.000004 -0.000001 -0.000001 -0.000001 -0.000001 0.000001 -0.016662 0.078957 0.057696 11.975020 3.115160 -38.766115 -0.176972 -0.020537 -0.095144 -35.093666 -20.158356 69.931548 5.994616 -3.931024 15.262198 -0.000000 0.000005 0.000005 -0.021773 -0.038278 0.012988 -0.000001 0.000000 -0.000003 -0.000000 0.000005 0.000003 -0.000003 -0.000002 -0.000005 -0.000002 0.000003 -0.000000 0.009114 -0.002381 -0.024211 0.000000 -0.000001 0.000001 0.000001 -0.000005 0.000000 0.000001 -0.000005 -0.000003 -0.032828 -0.025095 0.012286 0.000002 0.000001 -0.000003 -0.000000 0.000006 0.000003 0.000003 0.000001 0.000001 -0.000001 0.000003 -0.000004 -0.039192 -0.011488 0.008390 -0.000002 0.000006 -0.000002 0.000004 0.000001 -0.000003 0.000002 0.000001 -0.000002 0.000000 0.000001 0.000003 -0.043421 0.002443 0.002845 -0.000000 0.000001 -0.000005 -0.000001 0.000003 -0.000002 -0.000001 -0.000001 0.000000 -0.000001 0.000000 0.000002 -0.000000 0.000000 -0.000000 -1.995097 0.069359 -1.773275 -77.429517 -1.195753 -11.759104 131.903425 -0.266668 2.693935 -0.000007 -0.000002 0.000002 0.000000 0.000000 0.000000 0.000000 -0.000003 0.000001 -0.038000 -0.085200 0.016200 0.000001 0.000000 -0.000001 -0.000000 0.000000 0.000000 -1.949935 0.068429 -0.539139 -78.188509 0.737701 4.960280 123.555568 -1.094436 11.116086 0.000000 0.000000 0.000000 -0.000005 0.000000 0.000000 0.000002 0.000000 0.000000 0.038000 -0.085200 0.016200 0.000002 -0.000000 0.000001 
-0.009319 0.221214 -0.042580 -1.638393 -6.226813 84.509384 0.000000 0.000000 0.000000 -0.000000 0.000000 0.000000 0.000001 0.000000 -0.000000 0.000001 -0.000000 0.000000 0.000924 0.155148 0.009274 -0.924181 -0.009166 19.784743 0.019937 0.078966 0.057518 -3.901661 0.796747 30.544719 0.177025 -0.020465 -0.095062 -47.705019 26.794958 -71.671579 8.362511 20.127799 10.140328 -0.000002 0.000000 -0.000001 0.021770 -0.038291 0.012954 -0.000000 -0.000000 0.000001 0.000004 0.000001 0.000003 0.000002 0.000003 0.000005 -0.000001 0.000001 -0.000000 -0.009090 -0.002348 -0.024223 0.000002 -0.000002 -0.000001 -0.000001 0.000001 -0.000000 -0.000000 0.000003 0.000001 0.032823 -0.025104 0.012281 -0.000001 -0.000000 0.000005 -0.000003 0.000002 -0.000005 -0.000005 -0.000005 0.000003 -0.000001 0.000002 0.000004 0.039230 -0.011402 0.008390 0.000001 0.000001 0.000004 0.000002 0.000003 0.000001 -0.000000 0.000001 -0.000001 0.000004 -0.000003 0.000007 0.043417 0.002450 0.002889 0.000001 0.000001 -0.000003 -0.000001 -0.000008 0.000002 0.000002 0.000004 -0.000001 -0.000003 0.000000 -0.000002 -0.016662 0.078956 0.057696 16.180247 2.955283 -39.359703 -0.176972 -0.020537 -0.095144 -32.889922 -19.172218 68.621777 8.447154 -5.411910 17.167721 0.000005 0.000001 -0.000000 -0.021773 -0.038278 0.012988 -0.000001 -0.000003 0.000002 -0.000000 -0.000001 -0.000001 -0.000001 -0.000002 -0.000003 0.000002 0.000004 0.000005 0.009113 -0.002381 -0.024211 -0.000002 -0.000005 0.000002 -0.000002 -0.000005 0.000000 0.000000 0.000001 0.000001 -0.032828 -0.025095 0.012286 -0.000000 -0.000002 -0.000001 -0.000001 0.000003 0.000001 0.000001 0.000001 -0.000005 -0.000000 -0.000001 -0.000006 -0.039192 -0.011488 0.008390 0.000002 -0.000001 0.000001 -0.000000 0.000003 -0.000002 0.000002 -0.000000 -0.000000 0.000002 0.000004 -0.000000 -0.043421 0.002443 0.002844 -0.000002 -0.000001 0.000000 0.000000 0.000002 -0.000002 0.000001 -0.000004 -0.000000 0.000005 -0.000000 0.000001 0.000000 0.000000 -0.000000 -2.047687 0.125629 -2.398901 -79.909580 -1.384033 -14.247121 136.568717 -0.412179 4.164801 0.000000 -0.000001 0.000001 -0.000007 0.000000 0.000000 0.000002 -0.000001 0.000001 -0.038000 -0.085200 0.016200 -0.000002 -0.000001 -0.000000 0.000000 0.000000 -0.000000 -1.999419 0.124107 -1.164815 -79.207040 0.549509 2.477282 129.170434 -1.244276 12.661821 -0.000005 -0.000000 0.000000 0.000005 -0.000000 0.000000 0.000007 -0.000000 0.000000 0.038000 -0.085200 0.016200 -0.000000 0.000000 -0.000000 
-0.007155 0.218833 -0.037980 -19.851038 -8.524470 74.918815 -0.000001 -0.000001 0.000001 -0.000001 -0.000001 -0.000001 -0.000000 0.000001 -0.000002 -0.000001 0.000001 -0.000000 0.000924 0.155147 0.009274 21.802357 -0.065937 28.999576 0.019937 0.078966 0.057518 12.780285 6.088798 40.479423 0.177025 -0.020465 -0.095062 -77.506371 35.203874 -60.581886 0.139967 -0.701713 -9.988514 -0.000001 -0.000001 -0.000002 0.021770 -0.038291 0.012954 -0.000001 -0.000000 0.000001 0.000002 -0.000004 0.000006 0.000002 -0.000001 0.000003 -0.000005 0.000002 0.000002 -0.009090 -0.002348 -0.024224 0.000004 -0.000003 0.000004 -0.000002 0.000000 0.000003 -0.000001 0.000000 -0.000002 0.032823 -0.025104 0.012281 0.000002 -0.000001 0.000002 0.000003 0.000003 -0.000003 -0.000000 0.000002 -0.000000 -0.000001 0.000003 0.000001 0.039230 -0.011402 0.008390 0.000000 -0.000000 0.000006 0.000004 -0.000000 -0.000004 -0.000004 0.000003 0.000003 0.000000 0.000001 0.000007 0.043417 0.002450 0.002889 -0.000001 -0.000001 0.000002 -0.000001 -0.000004 -0.000004 0.000002 0.000001 -0.000003 0.000000 -0.000002 0.000001 -0.016662 0.078957 0.057696 29.347629 5.260619 -43.122816 -0.176972 -0.020537 -0.095144 -30.183948 -24.533971 79.092102 -47.916202 33.237791 23.310853 -0.000000 0.000003 0.000003 -0.021773 -0.038278 0.012988 0.000000 -0.000001 -0.000003 -0.000004 0.000001 0.000001 -0.000003 -0.000000 -0.000003 0.000002 0.000000 0.000004 0.009114 -0.002381 -0.024212 -0.000001 -0.000002 0.000001 -0.000000 -0.000000 0.000002 -0.000000 0.000001 0.000003 -0.032828 -0.025095 0.012286 0.000002 0.000000 0.000001 -0.000000 0.000003 0.000004 -0.000000 0.000003 -0.000000 -0.000002 0.000000 -0.000000 -0.039192 -0.011488 0.008390 0.000002 0.000001 0.000003 -0.000000 0.000004 -0.000005 -0.000000 -0.000006 0.000003 0.000001 0.000003 -0.000002 -0.043421 0.002443 0.002845 0.000001 0.000000 -0.000003 -0.000003 0.000006 0.000003 -0.000001 -0.000005 0.000000 -0.000001 -0.000001 -0.000002 -0.000000 0.000000 0.000000 -1.967240 0.715768 -9.168573 -67.193550 -2.113186 -24.606223 133.498807 -1.269847 12.925580 -0.000002 -0.000001 -0.000000 -0.000001 -0.000001 0.000000 0.000000 -0.000003 -0.000003 -0.038000 -0.085200 0.016200 -0.000003 0.000001 0.000001 -0.000000 0.000000 0.000000 -1.900200 0.705658 -7.935225 -63.785313 -0.203225 -7.008422 114.380977 -2.445645 25.528867 -0.000002 0.000000 0.000000 -0.000002 -0.000000 0.000000 0.000002 0.000000 0.000000 0.038000 -0.085200 0.016200 -0.000001 -0.000001 -0.000001 
-0.005646 0.218598 -0.035206 -20.988878 -9.742339 72.084382 0.000002 0.000001 0.000001 -0.000001 -0.000000 0.000000 -0.000000 0.000002 -0.000003 0.000001 0.000001 0.000000 0.000924 0.155148 0.009274 24.374295 -0.106519 41.715626 0.019937 0.078966 0.057518 11.917498 7.196489 48.084259 0.177024 -0.020465 -0.095062 -89.731317 24.475993 -49.260841 -8.542466 -7.463013 -20.330070 -0.000000 0.000000 0.000001 0.021770 -0.038291 0.012954 0.000001 -0.000000 -0.000000 -0.000003 -0.000001 0.000003 -0.000000 -0.000000 0.000009 0.000000 0.000003 -0.000005 -0.009090 -0.002348 -0.024223 -0.000002 -0.000002 0.000003 -0.000000 -0.000001 -0.000004 0.000000 0.000000 0.000001 0.032823 -0.025104 0.012281 0.000001 0.000001 0.000002 0.000001 0.000001 -0.000003 -0.000003 0.000003 0.000003 -0.000002 -0.000005 0.000006 0.039230 -0.011402 0.008390 0.000003 0.000000 0.000001 -0.000000 0.000000 -0.000002 -0.000003 0.000002 0.000005 0.000000 -0.000006 0.000001 0.043417 0.002450 0.002889 -0.000000 0.000001 -0.000002 0.000001 -0.000001 -0.000003 0.000000 -0.000002 -0.000003 -0.000001 0.000000 0.000004 -0.016662 0.078957 0.057696 20.428758 6.198111 -49.166444 -0.176972 -0.020537 -0.095144 -51.183757 -28.863891 67.756911 -37.693929 38.808121 10.218915 -0.000000 -0.000001 -0.000003 -0.021773 -0.038278 0.012988 0.000000 0.000001 -0.000005 -0.000003 0.000001 0.000001 -0.000001 0.000003 -0.000001 -0.000000 0.000004 0.000003 0.009114 -0.002381 -0.024211 -0.000003 -0.000004 0.000002 0.000001 0.000001 0.000002 0.000002 -0.000002 -0.000003 -0.032828 -0.025095 0.012286 0.000001 0.000001 -0.000003 0.000001 0.000004 0.000003 -0.000000 0.000004 -0.000002 -0.000003 0.000004 -0.000000 -0.039192 -0.011488 0.008390 0.000000 0.000005 -0.000000 -0.000002 -0.000000 0.000000 -0.000001 -0.000003 -0.000002 0.000001 0.000004 -0.000001 -0.043421 0.002443 0.002844 0.000003 0.000003 0.000000 -0.000002 0.000004 -0.000002 0.000002 -0.000008 -0.000001 0.000000 -0.000002 0.000002 0.000000 0.000000 -0.000000 -1.946213 0.933495 -11.651600 -60.289752 -1.959551 -22.653374 126.872786 -1.151209 11.699844 0.000005 -0.000003 0.000003 -0.000001 0.000003 0.000000 0.000003 -0.000002 0.000002 -0.038000 -0.085200 0.016200 -0.000001 0.000004 0.000002 0.000000 0.000000 0.000000 -1.871961 0.918983 -10.418613 -54.859830 -0.065827 -4.847740 105.590066 -2.603461 27.309967 -0.000005 -0.000000 -0.000001 0.000004 0.000001 0.000000 0.000002 0.000000 0.000000 0.038000 -0.085200 0.016200 0.000001 -0.000001 -0.000001 
